# xmcd
#
# Track frame offsets:
#  150
#  22685
#  42147
#  73560
#  89057
#  109806
#  127127
#  143150
#  163195
#  188974
#
# Disc length: 2795 seconds
#
# Revision: 2
# Processed by: cddbd v1.5.1PL2 Copyright (c) Steve Scherf et al.
# Submitted via: Collectorz.com_Music_Collector 6.11
#
DISCID=8b0ae90a
DTITLE=Various Artist - A Taste Of The Blues
DYEAR=2005
DGENRE=Blues
TTITLE0=Koko Taylor - Can't Let Go
TTITLE1=Lil' Ed and The Blues Imperials - Never Miss Your Water
TTITLE2=Albert Collins - Lights Are On, But Nobody's Home
TTITLE3=The Holmes Brothers - Run Myself Out Of Town
TTITLE4=Little Charlie and The Nightcats - Keep Your Big Mouth Shut
TTITLE5=Buddy Guy and Junior Wells - Give Me My Coat And Shoes
TTITLE6=Shemekia Copeland - Breakin' Out
TTITLE7=Marcia Ball - Louella
TTITLE8=Lonnie Brooks - Cold Lonely Nights
TTITLE9=Hound Dog Taylor - Give Me Back My Wig
EXTD=
EXTT0=
EXTT1=
EXTT2=
EXTT3=
EXTT4=
EXTT5=
EXTT6=
EXTT7=
EXTT8=
EXTT9=
PLAYORDER=
